# xmcd CD database file
#
# Track frame offsets:
#	150
#	16910
#	33581
#	47798
#	62015
#	81744
#	101468
#	113347
#	125226
#	141961
#	158696
#	172419
#	186147
#	202799
#	219543
#	238465
#	257387
#	269938
#	282489
#	302525
#	322561
#
# Disc length: 4319 seconds
#
# Revision: 0
# Processed by: cddbd v1.5.1PL0 Copyright (c) Steve Scherf et al.
# Submitted via: CDex 1.51
#
DISCID=3710dd15
DTITLE=Hal Leonard Jazz Play Along - Volume 7 - Essential Jazz Standards - 10 Essential Jazz Standards
DYEAR=1900
DGENRE=Jazz
TTITLE0=Autumn Leaves (Split)
TTITLE1=Autumn Leaves (Stereo)
TTITLE2=Cotton Tail (Split)
TTITLE3=Cotton Tail (Stereo)
TTITLE4=Easy Living (Split)
TTITLE5=Easy Living (Stereo)
TTITLE6=I Remember You (Split)
TTITLE7=I Remember You (Stereo)
TTITLE8=If I Should Lose You (Split)
TTITLE9=If I Should Lose You (Stereo)
TTITLE10=Lullaby of Birdland (Split)
TTITLE11=Lullaby of Birdland (Stereo)
TTITLE12=Out of Nowhere (Split)
TTITLE13=Out of Nowhere (Stereo)
TTITLE14=Stella By Starlight (Split)
TTITLE15=Stella By Starlight (Stereo)
TTITLE16=There Will Never Be Another You (Split)
TTITLE17=There Will Never Be Another You (Stereo)
TTITLE18=When Sunny Gets Blue (Split)
TTITLE19=When Sunny Gets Blue (Stereo)
TTITLE20=Bb Tuning Notes
EXTD=
EXTT0=
EXTT1=
EXTT2=
EXTT3=
EXTT4=
EXTT5=
EXTT6=
EXTT7=
EXTT8=
EXTT9=
EXTT10=
EXTT11=
EXTT12=
EXTT13=
EXTT14=
EXTT15=
EXTT16=
EXTT17=
EXTT18=
EXTT19=
EXTT20=
PLAYORDER=
